<svg width="642" height="482" xmlns="http://www.w3.org/2000/svg">
 <!-- Created with Method Draw - http://github.com/duopixel/Method-Draw/ -->

 <g>
  <title>background</title>
  <rect fill="#ffffff" id="canvas_background" height="484" width="644" y="-1" x="-1"/>
  <g display="none" overflow="visible" y="0" x="0" height="100%" width="100%" id="canvasGrid">
   <rect fill="url(#gridpattern)" stroke-width="0" y="1" x="1" height="480" width="640"/>
  </g>
 </g>
 <g>
  <title>Layer 1</title>
  <g stroke="null" id="svg_29">
   <path stroke="#ffffff" id="svg_27" stroke-width="5" stroke-miterlimit="10" fill="#666666" d="m321,158.20313c-49.02328,0 -88.79688,37.0861 -88.79688,82.79687s39.7736,82.79687 88.79688,82.79687s88.79688,-37.0861 88.79688,-82.79687s-39.7736,-82.79687 -88.79688,-82.79687z"/>
   <path stroke="#ffffff" id="svg_28" d="m321,185.80209l0,62.09765l44.39844,0" stroke-width="5" stroke-linejoin="round" stroke-linecap="round" fill="#666666"/>
  </g>
  <g id="svg_11">
   <path stroke="#ffffff" fill="#E6C36A" id="svg_10" d="m387,278.26172c-17.50031,0 -31.73828,14.23798 -31.73828,31.73828s14.23798,31.73828 31.73828,31.73828s31.73828,-14.23798 31.73828,-31.73828s-14.23798,-31.73828 -31.73828,-31.73828zm0,48.81439a3.05176,3.05176 0 1 1 3.05176,-3.05176a3.05176,3.05176 0 0 1 -3.05176,3.05176zm3.31421,-30.69305l-0.87585,18.61572a2.44141,2.44141 0 0 1 -4.88281,0l-0.87585,-18.60657l0,-0.00763a3.31726,3.31726 0 1 1 6.62842,0l0.0061,-0.00153z"/>
  </g>
 </g>
</svg>