<svg fill="#000000" xmlns="http://www.w3.org/2000/svg"  viewBox="0 0 100 100" width="400px" height="400px"><path fill="none" stroke="#000000" stroke-linecap="round" stroke-linejoin="round" stroke-miterlimit="10" d="M67.5,22.551	c-0.33-0.03-0.662-0.051-1-0.051h-33c-6.075,0-11,4.925-11,11v33c0,6.075,4.925,11,11,11h33c6.075,0,11-4.925,11-11v-17"/><line x1="77.5" x2="77.5" y1="39.5" y2="37.5" fill="none" stroke="#000000" stroke-linecap="round" stroke-linejoin="round" stroke-miterlimit="10"/><line x1="77.5" x2="77.5" y1="46.5" y2="42.5" fill="none" stroke="#000000" stroke-linecap="round" stroke-linejoin="round" stroke-miterlimit="10"/><path fill="none" stroke="#000000" stroke-linejoin="round" stroke-miterlimit="10" stroke-width="2" d="M69,82H31	c-7.18,0-13-5.82-13-13V31c0-7.18,5.82-13,13-13h38c7.18,0,13,5.82,13,13v38C82,76.18,76.18,82,69,82z"/><circle cx="44" cy="44" r="12.5" fill="none" stroke="#000000" stroke-miterlimit="10"/><circle cx="44" cy="44" r="9.5" fill="none" stroke="#000000" stroke-miterlimit="10"/><line x1="52.499" x2="55" y1="52.499" y2="55" fill="none" stroke="#000000" stroke-miterlimit="10" stroke-width="2"/><path fill="none" stroke="#000000" stroke-miterlimit="10" d="M66,68.5c-0.64,0-1.28-0.244-1.768-0.732l-9-9	c-0.977-0.977-0.977-2.559,0-3.535c0.976-0.977,2.56-0.977,3.535,0l9,9c0.977,0.977,0.977,2.559,0,3.535	C67.28,68.256,66.64,68.5,66,68.5z"/><line x1="59.5" x2="55.5" y1="55.5" y2="59.5" fill="none" stroke="#000000" stroke-miterlimit="10"/></svg>