<svg id="SvgjsSvg1001" width="288" height="288" xmlns="http://www.w3.org/2000/svg" version="1.1" xmlns:xlink="http://www.w3.org/1999/xlink" xmlns:svgjs="http://svgjs.com/svgjs"><defs id="SvgjsDefs1002"></defs><g id="SvgjsG1008" transform="matrix(0.9167,0,0,0.9167,11.995200000000011,11.995200000000011)"><svg xmlns="http://www.w3.org/2000/svg" width="288" height="288" viewBox="0 0 24 24"><path d="M11 8A3 3 0 1 0 11 14A3 3 0 1 0 11 8Z" fill="#ffffff" class="color000 svgShape"></path><path d="M19,3H5C3.895,3,3,3.895,3,5v14c0,1.105,0.895,2,2,2h14c1.105,0,2-0.895,2-2V5C21,3.895,20.105,3,19,3z M17.707,17.707c-0.391,0.391-1.024,0.391-1.414,0l-2.539-2.539C12.964,15.692,12.019,16,11,16c-2.761,0-5-2.239-5-5s2.239-5,5-5s5,2.239,5,5c0,1.019-0.308,1.964-0.832,2.754l2.539,2.539C18.098,16.683,18.098,17.317,17.707,17.707z" fill="#ffffff" class="color000 svgShape"></path></svg></g></svg>