<svg id="SvgjsSvg1001" width="288" height="288" xmlns="http://www.w3.org/2000/svg" version="1.1" xmlns:xlink="http://www.w3.org/1999/xlink" xmlns:svgjs="http://svgjs.com/svgjs"><defs id="SvgjsDefs1002"></defs><g id="SvgjsG1008" transform="matrix(0.9167,0,0,0.9167,10.85602076797484,14.36766054306031)"><svg xmlns="http://www.w3.org/2000/svg" viewBox="0 0 100 125" width="288" height="288"><g transform="translate(0 -952.362)" fill="#66ccff" class="color000 svgShape"><path stroke="#66ccff" stroke-linecap="round" stroke-linejoin="round" stroke-width=".1" style="isolation:auto;mix-blend-mode:normal;solid-color:#000;solid-opacity:1" d="M28.227871 997.79095l55.641735 0c2.60197 0 4.696697 2.09473 4.696697 4.69675l0 5.2002c0 2.6019-2.094727 4.6967-4.696697 4.6967l-63.865329 0c-2.60197 0-4.696697-2.0948-4.696697-4.6967l0-4.2513c0-2.602 10.318321-5.64565 12.920291-5.64565zM53.005593 984.22961l23.259833 0c2.601972 0 4.6967 2.09473 4.6967 4.6967l0 3.35478c0 2.60197-2.094728 4.69667-4.6967 4.69667l-33.77149 0c-2.601972 0-4.6967-2.0947-4.6967-4.69667l0-3.35478c0-2.60197 12.606385-4.6967 15.208357-4.6967z" color="#000" enable-background="accumulate" overflow="visible" fill="#66ccff" class="color000 svgShape colorStroke000 svgStroke"></path><rect width="31.285" height="3.798" x="5.735" y="988.704" stroke="#66ccff" stroke-linecap="round" stroke-linejoin="round" stroke-width=".104" color="#000" enable-background="accumulate" style="isolation:auto;mix-blend-mode:normal;solid-color:#000;solid-opacity:1" overflow="visible" rx=".421" ry=".391" fill="#66ccff" class="color000 svgShape colorStroke000 svgStroke"></rect><rect width="14.034" height="1.901" x="58.765" y="981.21" stroke="#66ccff" stroke-linecap="round" stroke-linejoin="round" stroke-width=".1" color="#000" enable-background="accumulate" style="isolation:auto;mix-blend-mode:normal;solid-color:#000;solid-opacity:1" overflow="visible" rx=".391" ry=".391" fill="#66ccff" class="color000 svgShape colorStroke000 svgStroke"></rect><circle cx="31.535" cy="1019.364" r="4.136" fill="none" stroke="#66ccff" stroke-linecap="round" stroke-linejoin="round" stroke-width=".679" style="isolation:auto;mix-blend-mode:normal;solid-color:#000;solid-opacity:1" color="#000" enable-background="accumulate" overflow="visible" class="colorStroke000 svgStroke"></circle><circle cx="40.928" cy="1019.364" r="4.136" fill="none" stroke="#66ccff" stroke-linecap="round" stroke-linejoin="round" stroke-width=".679" color="#000" enable-background="accumulate" style="isolation:auto;mix-blend-mode:normal;solid-color:#000;solid-opacity:1" overflow="visible" class="colorStroke000 svgStroke"></circle><circle cx="50.322" cy="1019.364" r="4.136" fill="none" stroke="#66ccff" stroke-linecap="round" stroke-linejoin="round" stroke-width=".679" style="isolation:auto;mix-blend-mode:normal;solid-color:#000;solid-opacity:1" color="#000" enable-background="accumulate" overflow="visible" class="colorStroke000 svgStroke"></circle><circle cx="59.715" cy="1019.364" r="4.136" fill="none" stroke="#66ccff" stroke-linecap="round" stroke-linejoin="round" stroke-width=".679" color="#000" enable-background="accumulate" style="isolation:auto;mix-blend-mode:normal;solid-color:#000;solid-opacity:1" overflow="visible" class="colorStroke000 svgStroke"></circle><circle cx="69.22" cy="1019.364" r="4.136" fill="none" stroke="#66ccff" stroke-linecap="round" stroke-linejoin="round" stroke-width=".679" style="isolation:auto;mix-blend-mode:normal;solid-color:#000;solid-opacity:1" color="#000" enable-background="accumulate" overflow="visible" class="colorStroke000 svgStroke"></circle><circle cx="78.614" cy="1019.364" r="4.136" fill="none" stroke="#66ccff" stroke-linecap="round" stroke-linejoin="round" stroke-width=".679" color="#000" enable-background="accumulate" style="isolation:auto;mix-blend-mode:normal;solid-color:#000;solid-opacity:1" overflow="visible" class="colorStroke000 svgStroke"></circle><path fill="none" stroke="#66ccff" stroke-linecap="round" stroke-linejoin="round" stroke-width="1.3" style="isolation:auto;mix-blend-mode:normal;solid-color:#000;solid-opacity:1" d="m 24.657661,1013.9173 56.13673,0 c 2.694896,0 5.199911,0.489 5.199911,2.0687 l 0,3.1313 c 0,1.5797 -2.728667,5.8708 -6.765477,5.8708 l -48.644378,0 c -2.694896,0 -8.442871,-5.5212 -8.442871,-7.1009 l 0,-2.013 c 0,-1.5797 -0.178811,-1.9569 2.516085,-1.9569 z" color="#000" enable-background="accumulate" overflow="visible" class="colorStroke000 svgStroke"></path><path fill="none" stroke="#66ccff" d="M28.661643 1022.2353l5.752563-5.7526M28.622107 1016.4234l5.930476 5.9305M37.99226 1022.2353l5.752563-5.7526M37.952724 1016.4234l5.930476 5.9305M47.441486 1022.2353l5.752563-5.7526M47.40195 1016.4234l5.930476 5.9305M56.772103 1022.2353l5.752563-5.7526M56.732567 1016.4234l5.930476 5.9305M66.300402 1022.2353l5.752563-5.7526M66.260866 1016.4234l5.930476 5.9305M75.749628 1022.2748l5.752563-5.7526M75.710092 1016.4629l5.930476 5.9305" class="colorStroke000 svgStroke"></path></g><text y="115" font-family="'Helvetica Neue', Helvetica, Arial-Unicode, Arial, Sans-serif" font-size="5" font-weight="bold" svgjs:data="{&quot;leading&quot;:&quot;1.3&quot;}">Created by J Wagner</text><text y="120" font-family="'Helvetica Neue', Helvetica, Arial-Unicode, Arial, Sans-serif" font-size="5" font-weight="bold" svgjs:data="{&quot;leading&quot;:&quot;1.3&quot;}">from the Noun Project</text></svg></g></svg>